<svg version="1.1" xmlns="http://www.w3.org/2000/svg" width="50px" height="50px" viewBox="0 0 50 50">
<g id="l">
<polygon points="26.063,0.594 9.5,14.406 9.5,17.656 7.688,19.594 11.375,41.031 23.938,49.406 36.5,42.531 42.313,19.094 "/>
</g>
<g id="d">
<polygon fill="#DB4966" points="23.063,19.875 25,18.375 23.063,16.875 26.125,14.563 31.438,19.875 23.938,26.5 12.313,16.625 25.813,4.375 38.813,19.313 34.375,40.688 25,46.375 25,28.875 33.75,21.188 33.563,18.5 26.5,11.375 20.125,15.938 20.188,17.313 "/>
<polyline fill="#DB4966" points="11.563,20.438 14,39.5 22.813,45.875 22.813,28.75 11.813,20.438 "/>
</g>
</svg>
