<svg version="1.1" xmlns="http://www.w3.org/2000/svg" width="50px" height="50px" viewBox="0 0 50 50">
<g id="l">
<polygon points="16.063,10.375 7.75,15.563 5.938,31.125 16.875,44.688 30.875,45.563 44,35.125 44.938,20.375 31.938,5.125 19.75,5.125 "/>
</g>
<g id="d">
<polygon fill="#FFFFFF" points="17,13.375 11.125,17.813 9.25,29.563 18.813,41.063 30.563,41.625 40.438,33.438 40.938,21.563 30.813,9.313 22.563,8.938 20.75,10.188 27.375,13.625 31.563,23.625 25,31.813 17.938,25.813 20.75,22.125 22.313,23.625 21.063,25.344 24.563,28.063 28.125,25 28.125,20.438 25,15.125 "/>
</g>
</svg>
