<svg version="1.1" xmlns="http://www.w3.org/2000/svg" width="50px" height="50px" viewBox="0 0 50 50">
<g id="l">
<polygon points="17.625,13.5 11,17.188 3.063,37.188 11.813,45.125 23.938,48.188 29.125,44.938 39.875,44.75 44.563,40.375 41.563,17.563 29.688,2.688 18.25,8.75 "/>
</g>
<g id="d">
<polygon fill="#B7755F" points="29.625,21.625 21,15.25 21,11.563 28.125,6.875 39,20.875 41.438,38.75 38.375,41.625 28.875,41.625 23.188,44.25 13.75,42.688 6.938,36.25 13.188,20.625 18.313,17 27.313,22.813 27.438,32.438 22.938,34.563 21.063,33.188 20.813,30.313 23.125,28.625 23.125,27 20.188,26.938 18.438,28.563 18.438,34.875 20.813,36.75 25,36.75 30,34.188 "/>
</g>
</svg>
