<svg version="1.1" xmlns="http://www.w3.org/2000/svg" width="50px" height="50px" viewBox="0 0 50 50">
<g id="l">
<polygon points="14.625,5.438 8.438,10.375 8.438,16.125 10.188,18.563 7.688,20.75 8.938,28.375 6.063,31.938 6.063,38.688 11.938,45.125 28.125,45.125 32.5,41.313 32.5,37.938 36.5,37.813 39.625,36.563 46.563,20.375 41.75,13.063 35.063,12.938 27.875,7.438 23.688,9.313 18.25,5.438 "/>
</g>
<g id="d">
<polygon fill="#EC905D" points="17,8.875 10.938,13.5 13.625,19.188 11.25,22 10.938,29.063 15.563,32.063 19.375,29.688 20.625,12.188 "/>
<path fill="#EC905D" d="M21.438,30.188c-0.188-1.688,2.125-15.75,2.125-15.75l4.5-3.063l4.313,3.563L29.125,31.5l-3.75,1.688 L21.438,30.188z"/>
<polygon fill="#EC905D" points="34.188,17.313 30.875,31.5 32.875,34.5 36.25,34.5 42.125,23.313 42.125,19.125 40,16.063 36.188,16.063 "/>
<polygon fill="#EC905D" points="10.25,31.75 8.5,34.5 8.5,36.813 13.125,42.375 26.25,42.813 29.563,40.313 29.563,37.813 28.063,35.438 24.125,35.438 19.938,33.188 16.5,35.125 "/>
</g>
</svg>
