<svg version="1.1" xmlns="http://www.w3.org/2000/svg" width="50px" height="50px" viewBox="0 0 50 50">
<g id="l">
<polygon points="27.875,2.625 22.563,6.938 21.75,9 12.438,9 6.25,17.125 6.25,20.875 9.625,27.938 12.688,29.5 15.375,29.5 16.063,39.563 23.938,47.5 31.75,47.5 39.875,40.563 40.438,31.063 36.063,24.188 31.688,22.188 27.438,21.938 27.25,19.563 33.5,19.563 38.188,15.25 38.125,8.313 34.625,3.813 31.625,2.625 "/>
</g>
<g id="d">
<polygon fill="#5B555A" points="29.5,5.313 24.375,9.25 24.375,13.438 26.938,16.813 31.938,16.813 35.313,13.875 35.313,9.188 "/>
<polygon fill="#5B555A" points="18.813,11.75 14.313,11.75 9.625,17.375 9.625,21.188 13.813,25.938 20.375,25.938 24.375,21.813 24.125,16.813 "/>
<polygon fill="#5B555A" points="18,32.188 25.25,25 31.563,25 37.563,31.625 37.125,39.375 31.625,45.25 26.063,44.813 24.375,43.313 27.438,42.938 31,39.688 30.75,34.25 27.438,31.938 24.375,31.813 22.313,34.5 22.5,36.313 23.75,37.313 25,36.5 25,34.875 25.625,34 27.313,33.875 29,35.75 28.938,39.375 26,41.438 22.125,41.375 18,37.5 "/>
</g>
</svg>
