<svg version="1.1" xmlns="http://www.w3.org/2000/svg" width="50px" height="50px" viewBox="0 0 50 50">
<g id="l">
<path fill="#1A2019" d="M20.5,0C20.313,0.438,14,15.5,14,15.5L2.188,29.188L9.25,46l10.625,3.688l3.75-1L29.875,50l8.938-5.625 l5.063-9.25l-3-14.25L28.25,3.375L20.5,0z"/>
</g>
<g id="d">
<polygon fill="#4BC0EF" points="19.188,46.125 13.375,44.875 6.813,34.875 6.813,28.625 16.125,17.75 23.031,4.563 35.75,17.625 40.813,33.625 30.75,47.125 26.25,47.125 20.875,42.75 17.563,35.688 24.438,29.875 28.063,32.875 26.125,34.563 25,33.813 23.438,35.563 26,37.438 31.375,32.688 24.688,25.844 14.313,35.25 "/>
</g>
</svg>
