<svg version="1.1" xmlns="http://www.w3.org/2000/svg" width="50px" height="50px" viewBox="0 0 50 50">
<g id="l">
<polygon points="29.438,2.375 25,8.438 22.563,6.938 18.063,16.75 7.938,25.5 8.563,34.25 14.813,42.875 24.563,49.063 41,36.813 41.75,28.938 33.563,19.125 36.25,14.938 35.75,10.063 "/>
</g>
<g id="d">
<polygon fill="#DC5B4D" points="23.438,11.125 20.063,18.375 10.875,27.063 10.875,32.688 23.875,45.563 38.938,34.688 38.563,28.875 32.313,21.563 27.813,21.625 22.688,28.344 24.844,32.313 28.5,32 28.625,28.344 31.563,31.875 25.313,35.625 20.625,30.25 20.938,26.813 26.125,19.813 26.25,14.75 "/>
<path fill="#DC5B4D" d="M30.75,17.5c-0.625-0.375-3.313-4.063-3.313-4.063L27.063,10l2.625-4.188l4.063,4.813v3.625L30.75,17.5z"/>
</g>
</svg>
