<svg version="1.1" xmlns="http://www.w3.org/2000/svg" width="50px" height="50px" viewBox="0 0 50 50">
<g id="l">
<path d="M28.25,1.75C28,2.125,22.875,5.875,22.875,5.875l-2.188,6c0,0-8.063,8.125-8.125,8.313s0,10.125,0,10.125l8.188,8.875 L25,49.313l5.375-3.75l2.375-7.188L40.125,31v-9.5L35.5,14L33,13.563l-2.063-5l-0.875-5.25L28.25,1.75z"/>
</g>
<g id="d">
<polygon fill="#B8649A" points="27.625,5.188 24.625,7.813 23,12.938 15.313,21.063 15.313,29.25 22.563,37.5 25.438,44.688 26.375,45.563 28.625,43.125 29.188,39 37.438,30.063 37.438,22.375 33.75,16.938 29.938,20.438 25.5,20.75 22.5,26.438 25.813,30.188 29.625,28 28.375,26.125 28.5,24.438 30.25,24.688 32.125,27.375 29.938,31.063 25,32.813 20.313,28 23.563,19 29.063,18.25 31.75,15.25 29.063,11.688 "/>
</g>
</svg>
