<svg version="1.1" xmlns="http://www.w3.org/2000/svg" width="50px" height="50px" viewBox="0 0 50 50">
<g id="l">
<path d="M36.5,1.125c-0.188,0.063-10.063,11.438-10.063,11.438L10.938,17l-5.813,9.188l0.813,10.75l2.438,6.188l5.875,2.25 l4.063,3.438h12.813l11-11.563l2.25-10.625l-0.75-11.313l-1.813-7.938L36.5,1.125z"/>
</g>
<g id="d">
<polygon fill="#A7D17A" points="25.375,16.5 12.875,20.688 8.313,26.938 8.875,35 13.5,42.25 13.75,35.375 18.563,28 28.25,27.75 31.438,33.25 27.75,37.188 25,37.063 23.5,35.813 27.25,33.625 27,30.25 19.875,30.875 16.563,36.563 16.625,41.438 19.438,45.313 29.813,45.313 38.438,36 40.875,28.563 40.875,17.688 39.75,11.188 36.25,5.938 31.438,13 "/>
</g>
</svg>
