<svg version="1.1" xmlns="http://www.w3.org/2000/svg" width="50px" height="50px" viewBox="0 0 50 50">
<g id="l">
<polygon points="36.688,4.375 45.563,4 43.188,21.125 38.563,26.469 39.875,28.875 29.313,43 11.688,46.438 8.438,44.063 14.125,37.125 5.375,21.688 7.75,12.813 21.875,6.5 28.125,10.938 "/>
</g>
<g id="d">
<polygon fill="#6BC099" points="21.563,9.875 10.75,14.688 8.688,20.313 15.688,33.188 26.688,31.25 39.188,22 41.5,7.625 38.5,7.625 30.938,13.063 25.094,13.5 20.5,18.25 21.75,20.813 24.375,20.938 27.188,18.563 28.75,20.063 25.094,23.563 20.688,23.313 17.063,17.75 23.688,12 "/>
<polygon fill="#6BC099" points="35.438,29.563 26.938,40.5 13,43.625 17.688,35.625 27.063,34.063 "/>
</g>
</svg>
